<svg xmlns="http://www.w3.org/2000/svg" viewBox="0 0 163.93 28.97"><defs><style>.cls-1{fill:#fff;}</style></defs><g id="Capa_2" data-name="Capa 2"><g id="Capa_1-2" data-name="Capa 1"><path class="cls-1" d="M19.4,27.18a17.21,17.21,0,0,1-3.78-4.67l-4.32-7h-3V28.06H4.39V5.85a6.13,6.13,0,0,0-.61-3.11,2.6,2.6,0,0,0-2.42-1H.5V.91H11.73a17.7,17.7,0,0,1,7.45,1.54Q22.53,4,22.53,8.32c0,3.64-2.3,6-6.91,7l4.53,7.2A14.41,14.41,0,0,0,23,26.07a5.53,5.53,0,0,0,3,1.17v.82a5.11,5.11,0,0,1-1.11.29,8.9,8.9,0,0,1-1.49.12A6.44,6.44,0,0,1,19.4,27.18Zm-5-13.72a6.59,6.59,0,0,0,2.68-1.93,4.87,4.87,0,0,0,1.1-3.21A5.15,5.15,0,0,0,17.11,5a6.6,6.6,0,0,0-2.68-2,7.72,7.72,0,0,0-2.91-.64,14.23,14.23,0,0,0-3.24.41V13.67a14.23,14.23,0,0,0,3.24.41A8.07,8.07,0,0,0,14.43,13.46Z"/><path class="cls-1" d="M23.39,29a7,7,0,0,1-4.29-1.39,17.59,17.59,0,0,1-3.91-4.81L11,16H8.78V28.56H3.89V5.85A5.71,5.71,0,0,0,3.35,3c-.3-.51-1-.77-2-.77H0V.41H11.73A18.23,18.23,0,0,1,19.39,2C21.81,3.11,23,5.24,23,8.32c0,3.71-2.22,6.16-6.62,7.31l4.17,6.61a14.05,14.05,0,0,0,2.76,3.44A5,5,0,0,0,26,26.74l.46.05V28.4l-.31.12a5.6,5.6,0,0,1-1.21.32A9,9,0,0,1,23.39,29ZM7.78,15h3.8L16,22.25a17.23,17.23,0,0,0,3.66,4.53h0A6,6,0,0,0,23.39,28a8.06,8.06,0,0,0,1.41-.11l.69-.15v0a5.89,5.89,0,0,1-2.77-1.22,14.56,14.56,0,0,1-3-3.68L14.82,15l.69-.16c4.39-1,6.52-3.09,6.52-6.5,0-2.7-1-4.46-3.06-5.41a17.2,17.2,0,0,0-7.24-1.5h-9A2.46,2.46,0,0,1,4.21,2.48a6.56,6.56,0,0,1,.68,3.37V27.56H7.78Zm3.74-.44a14.67,14.67,0,0,1-3.36-.43l-.38-.09V2.37l.38-.09a14.27,14.27,0,0,1,3.36-.43,8.33,8.33,0,0,1,3.1.68A7.14,7.14,0,0,1,17.5,4.65a5.61,5.61,0,0,1,1.21,3.67,5.35,5.35,0,0,1-1.22,3.53,7,7,0,0,1-2.88,2.07h0A8.43,8.43,0,0,1,11.52,14.58ZM8.78,13.27A8.67,8.67,0,0,0,14.25,13a6,6,0,0,0,2.48-1.79,4.3,4.3,0,0,0,1-2.88,4.56,4.56,0,0,0-1-3,6.14,6.14,0,0,0-2.48-1.83,8.51,8.51,0,0,0-5.46-.29Z"/><path class="cls-1" d="M42.48,27.67a2.28,2.28,0,0,1-1.14-1.42A10.41,10.41,0,0,1,41,23.13V.91h3.89V23.13a6.09,6.09,0,0,0,.61,3.1,2.58,2.58,0,0,0,2.42,1h.86v.82H44.88A5.74,5.74,0,0,1,42.48,27.67Z"/><path class="cls-1" d="M49.27,28.56H44.88a6.07,6.07,0,0,1-2.62-.44,2.76,2.76,0,0,1-1.39-1.71,10.73,10.73,0,0,1-.38-3.28V.41h4.89V23.13A5.65,5.65,0,0,0,45.92,26c.3.51,1,.77,2,.77h1.36ZM41.49,1.41V23.13a10.11,10.11,0,0,0,.32,3,1.81,1.81,0,0,0,.89,1.13h0a5.15,5.15,0,0,0,2.17.34h1.64a2.39,2.39,0,0,1-1.46-1.07,6.54,6.54,0,0,1-.68-3.36V1.41Z"/><path class="cls-1" d="M64.6,5.72a10.7,10.7,0,0,0-2-3.27,4.44,4.44,0,0,0-2.72-1V.58a5.82,5.82,0,0,0,.62,0,7.94,7.94,0,0,1,.85,0,8.72,8.72,0,0,1,4.14,1.05,8.2,8.2,0,0,1,3.37,4.17L76.22,22.3l2.55-5.63q1.82-4,7-15.76h2.07L75.4,28.47h-.78Z"/><path class="cls-1" d="M75.72,29H74.29l-10.15-23a10.32,10.32,0,0,0-1.91-3.11A4.06,4.06,0,0,0,59.8,1.9l-.45,0V.08h.5a4.93,4.93,0,0,0,.57,0,8.77,8.77,0,0,1,.9,0A9.28,9.28,0,0,1,65.7,1.11a8.75,8.75,0,0,1,3.59,4.41l6.93,15.56,2.09-4.62c1.2-2.63,3.54-7.93,7-15.75l.13-.3h3.18ZM75,28h.12L87,1.41h-1c-3.35,7.66-5.64,12.86-6.83,15.47l-3,6.64L68.38,5.93A7.88,7.88,0,0,0,65.23,2a8.48,8.48,0,0,0-4.54-1,4.54,4.54,0,0,1,2.22,1.07,10.81,10.81,0,0,1,2.14,3.43h0Z"/><path class="cls-1" d="M105,5.85a6.26,6.26,0,0,0-.6-3.11,2.6,2.6,0,0,0-2.42-1h-.86V.91h18.4c2.44,0,3.67,1.1,3.67,3.29V7.29h-.86c0-3.16-1.8-4.73-5.4-4.73h-8V13.25h11.66V14.9H108.85V26.42h7.56a8.93,8.93,0,0,0,4.67-1,7,7,0,0,0,2.67-3.5l.87.21L123.11,26a3.12,3.12,0,0,1-3.24,2H105Z"/><path class="cls-1" d="M119.87,28.56H104.46V5.85A5.85,5.85,0,0,0,103.93,3a2.16,2.16,0,0,0-2-.77h-1.36V.41h18.9c3.45,0,4.17,2.06,4.17,3.79V7.79h-1.86v-.5c0-2.89-1.56-4.23-4.9-4.23h-7.54v9.69H121V15.4H109.35V25.92h7.06a8.49,8.49,0,0,0,4.41-1,6.51,6.51,0,0,0,2.47-3.25l.16-.4,1.84.44-1.72,4.44A3.62,3.62,0,0,1,119.87,28.56Zm-14.41-1h14.41a2.63,2.63,0,0,0,2.77-1.73l.93-2.41a6.66,6.66,0,0,1-2.23,2.4,9.5,9.5,0,0,1-4.93,1.1h-8.06V14.4H120v-.65H108.35V2.06h8.54c3.93,0,5.35,1.85,5.76,3.81V4.2c0-1.9-1-2.79-3.17-2.79H103.32a2.5,2.5,0,0,1,1.47,1.07,6.68,6.68,0,0,1,.67,3.37Z"/><path class="cls-1" d="M144,6.46v21.6h-1.73V5.85a4.68,4.68,0,0,0-.88-3,3.73,3.73,0,0,0-3-1.07h-.43V.91h2.81a8.28,8.28,0,0,1,3.37.62,7.13,7.13,0,0,1,2.46,1.85l15.12,17.9V.91h1.73V28.47h-.87Z"/><path class="cls-1" d="M163.93,29h-1.6L144.49,7.83V28.56h-2.73V5.85A4.23,4.23,0,0,0,141,3.12a3.27,3.27,0,0,0-2.62-.89h-.93V.41h3.31a8.72,8.72,0,0,1,3.57.66,7.71,7.71,0,0,1,2.64,2L161.2,19.91V.41h2.73Zm-1.13-1h.13V1.41h-.73V22.64L146.2,3.7A6.43,6.43,0,0,0,143.92,2a7.67,7.67,0,0,0-3.17-.58H140a3.43,3.43,0,0,1,1.81,1.07,5.21,5.21,0,0,1,1,3.37V27.56h.73V5.1Z"/></g></g></svg>